<?xml version="1.0" encoding="UTF-8" standalone="no"?>
<svg
   xmlns:dc="http://purl.org/dc/elements/1.1/"
   xmlns:cc="http://creativecommons.org/ns#"
   xmlns:rdf="http://www.w3.org/1999/02/22-rdf-syntax-ns#"
   xmlns:svg="http://www.w3.org/2000/svg"
   xmlns="http://www.w3.org/2000/svg"
   xmlns:sodipodi="http://sodipodi.sourceforge.net/DTD/sodipodi-0.dtd"
   xmlns:inkscape="http://www.inkscape.org/namespaces/inkscape"
   height="55"
   width="44"
   id="svg2"
   version="1.1"
   inkscape:version="0.48.5 r10040"
   sodipodi:docname="1415851590_git-pull-request.svg">
  <metadata
     id="metadata10">
    <rdf:RDF>
      <cc:Work
         rdf:about="">
        <dc:format>image/svg+xml</dc:format>
        <dc:type
           rdf:resource="http://purl.org/dc/dcmitype/StillImage" />
      </cc:Work>
    </rdf:RDF>
  </metadata>
  <defs
     id="defs8" />
  <sodipodi:namedview
     pagecolor="#ffffff"
     bordercolor="#666666"
     borderopacity="1"
     objecttolerance="10"
     gridtolerance="10"
     guidetolerance="10"
     inkscape:pageopacity="0"
     inkscape:pageshadow="2"
     inkscape:window-width="1163"
     inkscape:window-height="753"
     id="namedview6"
     showgrid="false"
     inkscape:zoom="118"
     inkscape:cx="3.7401303"
     inkscape:cy="0.11902421"
     inkscape:window-x="0"
     inkscape:window-y="0"
     inkscape:window-maximized="0"
     inkscape:current-layer="svg2" />
  <path
     d="m 7.3418079,3.6661366 c -4.048,0 -7.33333296,3.28533 -7.33333296,7.3333404 0,2.70525 1.48419806,5.04521 3.66666696,6.31817 v 24.03209 c -2.1824689,1.27118 -3.66666696,3.60936 -3.66666696,6.3164 0,4.04623 3.28533296,7.33334 7.33333296,7.33334 4.0480021,0 7.3333341,-3.28711 7.3333341,-7.33334 0,-2.70704 -1.480645,-5.04522 -3.666666,-6.3164 v -24.03209 c 2.186021,-1.27296 3.666666,-3.61292 3.666666,-6.31817 0,-4.0480104 -3.285332,-7.3333404 -7.3333341,-7.3333404 z m 0,47.6666704 c -2.023083,0 -3.666666,-1.63997 -3.666666,-3.66667 0,-2.02308 1.643583,-3.66666 3.666666,-3.66666 2.028469,0 3.6666681,1.64358 3.6666681,3.66666 0,2.0267 -1.6381991,3.66667 -3.6666681,3.66667 z m 0,-36.66667 c -2.023083,0 -3.666666,-1.6382 -3.666666,-3.66666 0,-2.0284805 1.643583,-3.6666804 3.666666,-3.6666804 2.028469,0 3.6666681,1.6381999 3.6666681,3.6666804 0,2.02846 -1.6381991,3.66666 -3.6666681,3.66666 z m 33.0000011,26.68359 v -23.01692 c 0,-11.0286504 -11,-11.0000104 -11,-11.0000104 H 25.675143 V -5.3340369e-4 L 14.675142,10.999477 l 11.000001,11 v -7.33334 c 0,0 1.529,0 3.666666,0 3.233427,0 3.666667,3.66667 3.666667,3.66667 v 23.01692 c -2.184245,1.27119 -3.666667,3.60583 -3.666667,6.31641 0,4.04623 3.287109,7.33334 7.333334,7.33334 4.046224,0 7.333333,-3.28711 7.333333,-7.33334 0,-2.70704 -1.482422,-5.04522 -3.666667,-6.31641 z m -3.666666,9.98307 c -2.023084,1e-5 -3.666667,-1.63996 -3.666667,-3.66666 0,-2.02308 1.643583,-3.66666 3.666667,-3.66666 2.026692,0 3.666666,1.64358 3.666666,3.66666 0,2.0267 -1.639974,3.66667 -3.666666,3.66667 z"
     id="path4"
     inkscape:connector-curvature="0" />
</svg>
